<mxfile host="app.diagrams.net" agent="Mozilla/5.0 (Windows NT 10.0; Win64; x64) AppleWebKit/537.36 (KHTML, like Gecko) Chrome/131.0.0.0 Safari/537.36" version="24.8.6">
  <diagram name="Page-1" id="ZYCsGdM-G6zj-6ONgc5r">
    <mxGraphModel dx="5150" dy="1767" grid="1" gridSize="10" guides="1" tooltips="1" connect="1" arrows="1" fold="1" page="1" pageScale="1" pageWidth="850" pageHeight="1100" math="0" shadow="0">
      <root>
        <mxCell id="0" />
        <mxCell id="1" parent="0" />
        <mxCell id="SbpHxmQpAISH4jzBrHbH-1" value="Server" style="swimlane;whiteSpace=wrap;html=1;startSize=23;" vertex="1" parent="1">
          <mxGeometry x="-220" y="220" width="1060" height="420" as="geometry" />
        </mxCell>
        <mxCell id="SbpHxmQpAISH4jzBrHbH-3" value="Driving Adapters" style="swimlane;whiteSpace=wrap;html=1;" vertex="1" parent="SbpHxmQpAISH4jzBrHbH-1">
          <mxGeometry x="730" y="160" width="200" height="200" as="geometry" />
        </mxCell>
        <mxCell id="SbpHxmQpAISH4jzBrHbH-4" value="Dash app + template&lt;div&gt;REST Controllers&lt;/div&gt;&lt;div&gt;Connexion&lt;/div&gt;" style="text;html=1;align=center;verticalAlign=middle;resizable=0;points=[];autosize=1;strokeColor=none;fillColor=none;" vertex="1" parent="SbpHxmQpAISH4jzBrHbH-3">
          <mxGeometry x="45" y="70" width="130" height="60" as="geometry" />
        </mxCell>
        <mxCell id="SbpHxmQpAISH4jzBrHbH-5" value="Driven Adapters" style="swimlane;whiteSpace=wrap;html=1;" vertex="1" parent="SbpHxmQpAISH4jzBrHbH-1">
          <mxGeometry x="40" y="160" width="200" height="200" as="geometry" />
        </mxCell>
        <mxCell id="SbpHxmQpAISH4jzBrHbH-6" value="SQLAlchemy" style="text;html=1;align=center;verticalAlign=middle;resizable=0;points=[];autosize=1;strokeColor=none;fillColor=none;" vertex="1" parent="SbpHxmQpAISH4jzBrHbH-5">
          <mxGeometry x="65" y="85" width="90" height="30" as="geometry" />
        </mxCell>
        <mxCell id="SbpHxmQpAISH4jzBrHbH-9" value="" style="endArrow=classic;html=1;rounded=0;entryX=1;entryY=0.818;entryDx=0;entryDy=0;entryPerimeter=0;" edge="1" parent="SbpHxmQpAISH4jzBrHbH-1">
          <mxGeometry width="50" height="50" relative="1" as="geometry">
            <mxPoint x="730" y="340" as="sourcePoint" />
            <mxPoint x="620" y="339.9599999999998" as="targetPoint" />
          </mxGeometry>
        </mxCell>
        <mxCell id="SbpHxmQpAISH4jzBrHbH-11" value="Dependency" style="text;html=1;align=center;verticalAlign=middle;whiteSpace=wrap;rounded=0;" vertex="1" parent="SbpHxmQpAISH4jzBrHbH-1">
          <mxGeometry x="260" y="350" width="60" height="30" as="geometry" />
        </mxCell>
        <mxCell id="SbpHxmQpAISH4jzBrHbH-12" value="Dependency" style="text;html=1;align=center;verticalAlign=middle;whiteSpace=wrap;rounded=0;" vertex="1" parent="SbpHxmQpAISH4jzBrHbH-1">
          <mxGeometry x="645" y="350" width="60" height="30" as="geometry" />
        </mxCell>
        <mxCell id="SbpHxmQpAISH4jzBrHbH-90" value="Domain" style="swimlane;whiteSpace=wrap;html=1;" vertex="1" parent="SbpHxmQpAISH4jzBrHbH-1">
          <mxGeometry x="340" y="130" width="280" height="230" as="geometry" />
        </mxCell>
        <mxCell id="SbpHxmQpAISH4jzBrHbH-91" value="Device&lt;div&gt;Metric&lt;/div&gt;&lt;div&gt;Message&lt;/div&gt;&lt;div&gt;Command&lt;/div&gt;" style="text;html=1;align=center;verticalAlign=middle;resizable=0;points=[];autosize=1;strokeColor=none;fillColor=none;" vertex="1" parent="SbpHxmQpAISH4jzBrHbH-90">
          <mxGeometry x="100" y="80" width="80" height="70" as="geometry" />
        </mxCell>
        <mxCell id="SbpHxmQpAISH4jzBrHbH-8" value="" style="endArrow=classic;html=1;rounded=0;entryX=-0.003;entryY=0.812;entryDx=0;entryDy=0;entryPerimeter=0;" edge="1" parent="1">
          <mxGeometry width="50" height="50" relative="1" as="geometry">
            <mxPoint x="20" y="560" as="sourcePoint" />
            <mxPoint x="119.15999999999985" y="558.6400000000001" as="targetPoint" />
          </mxGeometry>
        </mxCell>
        <mxCell id="SbpHxmQpAISH4jzBrHbH-89" style="edgeStyle=orthogonalEdgeStyle;rounded=0;orthogonalLoop=1;jettySize=auto;html=1;entryX=0;entryY=0.5;entryDx=0;entryDy=0;" edge="1" parent="1" source="SbpHxmQpAISH4jzBrHbH-13" target="SbpHxmQpAISH4jzBrHbH-88">
          <mxGeometry relative="1" as="geometry" />
        </mxCell>
        <mxCell id="SbpHxmQpAISH4jzBrHbH-13" value="API" style="swimlane;whiteSpace=wrap;html=1;" vertex="1" parent="1">
          <mxGeometry x="970" y="440" width="360" height="200" as="geometry" />
        </mxCell>
        <mxCell id="SbpHxmQpAISH4jzBrHbH-16" value="" style="edgeStyle=orthogonalEdgeStyle;rounded=0;orthogonalLoop=1;jettySize=auto;html=1;" edge="1" parent="SbpHxmQpAISH4jzBrHbH-13" source="SbpHxmQpAISH4jzBrHbH-14" target="SbpHxmQpAISH4jzBrHbH-15">
          <mxGeometry relative="1" as="geometry">
            <Array as="points">
              <mxPoint x="165" y="100" />
              <mxPoint x="70" y="100" />
            </Array>
          </mxGeometry>
        </mxCell>
        <mxCell id="SbpHxmQpAISH4jzBrHbH-18" value="" style="edgeStyle=orthogonalEdgeStyle;rounded=0;orthogonalLoop=1;jettySize=auto;html=1;" edge="1" parent="SbpHxmQpAISH4jzBrHbH-13" source="SbpHxmQpAISH4jzBrHbH-14">
          <mxGeometry relative="1" as="geometry">
            <mxPoint x="270" y="130" as="targetPoint" />
            <Array as="points">
              <mxPoint x="165" y="100" />
              <mxPoint x="271" y="100" />
              <mxPoint x="271" y="130" />
            </Array>
          </mxGeometry>
        </mxCell>
        <mxCell id="SbpHxmQpAISH4jzBrHbH-14" value="YAML definition" style="text;html=1;align=center;verticalAlign=middle;resizable=0;points=[];autosize=1;strokeColor=none;fillColor=none;" vertex="1" parent="SbpHxmQpAISH4jzBrHbH-13">
          <mxGeometry x="110" y="40" width="110" height="30" as="geometry" />
        </mxCell>
        <mxCell id="SbpHxmQpAISH4jzBrHbH-15" value="OperationIds for Connexion" style="text;html=1;align=center;verticalAlign=middle;resizable=0;points=[];autosize=1;strokeColor=none;fillColor=none;" vertex="1" parent="SbpHxmQpAISH4jzBrHbH-13">
          <mxGeometry x="-15" y="120" width="170" height="30" as="geometry" />
        </mxCell>
        <mxCell id="SbpHxmQpAISH4jzBrHbH-19" value="Generated python client library" style="text;html=1;align=center;verticalAlign=middle;resizable=0;points=[];autosize=1;strokeColor=none;fillColor=none;" vertex="1" parent="SbpHxmQpAISH4jzBrHbH-13">
          <mxGeometry x="170" y="130" width="190" height="30" as="geometry" />
        </mxCell>
        <mxCell id="SbpHxmQpAISH4jzBrHbH-17" style="edgeStyle=orthogonalEdgeStyle;rounded=0;orthogonalLoop=1;jettySize=auto;html=1;entryX=-0.001;entryY=0.614;entryDx=0;entryDy=0;entryPerimeter=0;" edge="1" parent="1" target="SbpHxmQpAISH4jzBrHbH-15">
          <mxGeometry relative="1" as="geometry">
            <mxPoint x="660" y="500" as="sourcePoint" />
          </mxGeometry>
        </mxCell>
        <mxCell id="SbpHxmQpAISH4jzBrHbH-21" value="" style="shape=cylinder3;whiteSpace=wrap;html=1;boundedLbl=1;backgroundOutline=1;size=15;" vertex="1" parent="1">
          <mxGeometry x="-430" y="390" width="60" height="80" as="geometry" />
        </mxCell>
        <mxCell id="SbpHxmQpAISH4jzBrHbH-22" value="SQLite" style="text;html=1;align=center;verticalAlign=middle;whiteSpace=wrap;rounded=0;" vertex="1" parent="1">
          <mxGeometry x="-430" y="470" width="60" height="30" as="geometry" />
        </mxCell>
        <mxCell id="SbpHxmQpAISH4jzBrHbH-23" style="edgeStyle=orthogonalEdgeStyle;rounded=0;orthogonalLoop=1;jettySize=auto;html=1;entryX=1;entryY=0.5;entryDx=0;entryDy=0;entryPerimeter=0;" edge="1" parent="1" source="SbpHxmQpAISH4jzBrHbH-5" target="SbpHxmQpAISH4jzBrHbH-21">
          <mxGeometry relative="1" as="geometry" />
        </mxCell>
        <mxCell id="SbpHxmQpAISH4jzBrHbH-24" value="Agent" style="swimlane;whiteSpace=wrap;html=1;" vertex="1" parent="1">
          <mxGeometry x="550" y="750" width="540" height="480" as="geometry" />
        </mxCell>
        <mxCell id="SbpHxmQpAISH4jzBrHbH-27" style="edgeStyle=orthogonalEdgeStyle;rounded=0;orthogonalLoop=1;jettySize=auto;html=1;" edge="1" parent="SbpHxmQpAISH4jzBrHbH-24" source="SbpHxmQpAISH4jzBrHbH-26">
          <mxGeometry relative="1" as="geometry">
            <mxPoint x="690" y="-140" as="targetPoint" />
          </mxGeometry>
        </mxCell>
        <mxCell id="SbpHxmQpAISH4jzBrHbH-31" style="edgeStyle=orthogonalEdgeStyle;rounded=0;orthogonalLoop=1;jettySize=auto;html=1;entryX=0.5;entryY=0;entryDx=0;entryDy=0;" edge="1" parent="SbpHxmQpAISH4jzBrHbH-24" source="SbpHxmQpAISH4jzBrHbH-26" target="SbpHxmQpAISH4jzBrHbH-28">
          <mxGeometry relative="1" as="geometry" />
        </mxCell>
        <mxCell id="SbpHxmQpAISH4jzBrHbH-26" value="Client" style="rounded=0;whiteSpace=wrap;html=1;" vertex="1" parent="SbpHxmQpAISH4jzBrHbH-24">
          <mxGeometry x="390" y="40" width="120" height="60" as="geometry" />
        </mxCell>
        <mxCell id="SbpHxmQpAISH4jzBrHbH-29" style="edgeStyle=orthogonalEdgeStyle;rounded=0;orthogonalLoop=1;jettySize=auto;html=1;entryX=0.5;entryY=1;entryDx=0;entryDy=0;" edge="1" parent="SbpHxmQpAISH4jzBrHbH-24" source="SbpHxmQpAISH4jzBrHbH-28" target="SbpHxmQpAISH4jzBrHbH-26">
          <mxGeometry relative="1" as="geometry" />
        </mxCell>
        <mxCell id="SbpHxmQpAISH4jzBrHbH-36" style="edgeStyle=orthogonalEdgeStyle;rounded=0;orthogonalLoop=1;jettySize=auto;html=1;entryX=0;entryY=0.5;entryDx=0;entryDy=0;" edge="1" parent="SbpHxmQpAISH4jzBrHbH-24" source="SbpHxmQpAISH4jzBrHbH-28" target="SbpHxmQpAISH4jzBrHbH-35">
          <mxGeometry relative="1" as="geometry">
            <Array as="points">
              <mxPoint x="245" y="360" />
            </Array>
          </mxGeometry>
        </mxCell>
        <mxCell id="SbpHxmQpAISH4jzBrHbH-39" style="edgeStyle=orthogonalEdgeStyle;rounded=0;orthogonalLoop=1;jettySize=auto;html=1;entryX=1;entryY=0.5;entryDx=0;entryDy=0;" edge="1" parent="SbpHxmQpAISH4jzBrHbH-24" source="SbpHxmQpAISH4jzBrHbH-28" target="SbpHxmQpAISH4jzBrHbH-33">
          <mxGeometry relative="1" as="geometry">
            <Array as="points">
              <mxPoint x="245" y="360" />
            </Array>
          </mxGeometry>
        </mxCell>
        <mxCell id="SbpHxmQpAISH4jzBrHbH-28" value="Update loop" style="whiteSpace=wrap;html=1;aspect=fixed;" vertex="1" parent="SbpHxmQpAISH4jzBrHbH-24">
          <mxGeometry x="190" y="170" width="110" height="110" as="geometry" />
        </mxCell>
        <mxCell id="SbpHxmQpAISH4jzBrHbH-30" value="Data" style="text;html=1;align=center;verticalAlign=middle;whiteSpace=wrap;rounded=0;" vertex="1" parent="SbpHxmQpAISH4jzBrHbH-24">
          <mxGeometry x="350" y="190" width="60" height="30" as="geometry" />
        </mxCell>
        <mxCell id="SbpHxmQpAISH4jzBrHbH-32" value="Commands" style="text;html=1;align=center;verticalAlign=middle;whiteSpace=wrap;rounded=0;" vertex="1" parent="SbpHxmQpAISH4jzBrHbH-24">
          <mxGeometry x="270" y="70" width="60" height="30" as="geometry" />
        </mxCell>
        <mxCell id="SbpHxmQpAISH4jzBrHbH-38" style="edgeStyle=orthogonalEdgeStyle;rounded=0;orthogonalLoop=1;jettySize=auto;html=1;entryX=0.5;entryY=1;entryDx=0;entryDy=0;" edge="1" parent="SbpHxmQpAISH4jzBrHbH-24" source="SbpHxmQpAISH4jzBrHbH-33" target="SbpHxmQpAISH4jzBrHbH-28">
          <mxGeometry relative="1" as="geometry" />
        </mxCell>
        <mxCell id="SbpHxmQpAISH4jzBrHbH-33" value="Heater" style="whiteSpace=wrap;html=1;aspect=fixed;" vertex="1" parent="SbpHxmQpAISH4jzBrHbH-24">
          <mxGeometry x="30" y="320" width="80" height="80" as="geometry" />
        </mxCell>
        <mxCell id="SbpHxmQpAISH4jzBrHbH-37" style="edgeStyle=orthogonalEdgeStyle;rounded=0;orthogonalLoop=1;jettySize=auto;html=1;entryX=0.5;entryY=1;entryDx=0;entryDy=0;" edge="1" parent="SbpHxmQpAISH4jzBrHbH-24" source="SbpHxmQpAISH4jzBrHbH-35" target="SbpHxmQpAISH4jzBrHbH-28">
          <mxGeometry relative="1" as="geometry" />
        </mxCell>
        <mxCell id="SbpHxmQpAISH4jzBrHbH-35" value="Computer" style="whiteSpace=wrap;html=1;aspect=fixed;" vertex="1" parent="SbpHxmQpAISH4jzBrHbH-24">
          <mxGeometry x="390" y="320" width="80" height="80" as="geometry" />
        </mxCell>
        <mxCell id="SbpHxmQpAISH4jzBrHbH-40" value="Data, Commands" style="text;html=1;align=center;verticalAlign=middle;whiteSpace=wrap;rounded=0;" vertex="1" parent="SbpHxmQpAISH4jzBrHbH-24">
          <mxGeometry x="210" y="370" width="60" height="30" as="geometry" />
        </mxCell>
        <mxCell id="SbpHxmQpAISH4jzBrHbH-41" value="Onboard" style="swimlane;whiteSpace=wrap;html=1;" vertex="1" parent="1">
          <mxGeometry x="-490" y="1010" width="850" height="810" as="geometry" />
        </mxCell>
        <mxCell id="SbpHxmQpAISH4jzBrHbH-49" value="" style="edgeStyle=orthogonalEdgeStyle;rounded=0;orthogonalLoop=1;jettySize=auto;html=1;" edge="1" parent="SbpHxmQpAISH4jzBrHbH-41" source="SbpHxmQpAISH4jzBrHbH-46" target="SbpHxmQpAISH4jzBrHbH-48">
          <mxGeometry relative="1" as="geometry" />
        </mxCell>
        <mxCell id="SbpHxmQpAISH4jzBrHbH-51" value="" style="edgeStyle=orthogonalEdgeStyle;rounded=0;orthogonalLoop=1;jettySize=auto;html=1;" edge="1" parent="SbpHxmQpAISH4jzBrHbH-41" source="SbpHxmQpAISH4jzBrHbH-46" target="SbpHxmQpAISH4jzBrHbH-50">
          <mxGeometry relative="1" as="geometry" />
        </mxCell>
        <mxCell id="SbpHxmQpAISH4jzBrHbH-54" value="" style="edgeStyle=orthogonalEdgeStyle;rounded=0;orthogonalLoop=1;jettySize=auto;html=1;" edge="1" parent="SbpHxmQpAISH4jzBrHbH-41" source="SbpHxmQpAISH4jzBrHbH-46" target="SbpHxmQpAISH4jzBrHbH-48">
          <mxGeometry relative="1" as="geometry" />
        </mxCell>
        <mxCell id="SbpHxmQpAISH4jzBrHbH-58" style="edgeStyle=orthogonalEdgeStyle;rounded=0;orthogonalLoop=1;jettySize=auto;html=1;entryX=1;entryY=0.5;entryDx=0;entryDy=0;" edge="1" parent="SbpHxmQpAISH4jzBrHbH-41" source="SbpHxmQpAISH4jzBrHbH-46" target="SbpHxmQpAISH4jzBrHbH-56">
          <mxGeometry relative="1" as="geometry" />
        </mxCell>
        <mxCell id="SbpHxmQpAISH4jzBrHbH-59" style="edgeStyle=orthogonalEdgeStyle;rounded=0;orthogonalLoop=1;jettySize=auto;html=1;entryX=1;entryY=0.5;entryDx=0;entryDy=0;" edge="1" parent="SbpHxmQpAISH4jzBrHbH-41" source="SbpHxmQpAISH4jzBrHbH-46" target="SbpHxmQpAISH4jzBrHbH-57">
          <mxGeometry relative="1" as="geometry" />
        </mxCell>
        <mxCell id="SbpHxmQpAISH4jzBrHbH-46" value="&lt;b&gt;&lt;u&gt;TCP_Server&lt;/u&gt;&lt;/b&gt;" style="whiteSpace=wrap;html=1;aspect=fixed;" vertex="1" parent="SbpHxmQpAISH4jzBrHbH-41">
          <mxGeometry x="545" y="65" width="80" height="80" as="geometry" />
        </mxCell>
        <mxCell id="SbpHxmQpAISH4jzBrHbH-62" style="edgeStyle=orthogonalEdgeStyle;rounded=0;orthogonalLoop=1;jettySize=auto;html=1;entryX=0;entryY=0.5;entryDx=0;entryDy=0;" edge="1" parent="SbpHxmQpAISH4jzBrHbH-41" source="SbpHxmQpAISH4jzBrHbH-48" target="SbpHxmQpAISH4jzBrHbH-46">
          <mxGeometry relative="1" as="geometry" />
        </mxCell>
        <mxCell id="SbpHxmQpAISH4jzBrHbH-48" value="StateBuffer" style="whiteSpace=wrap;html=1;aspect=fixed;" vertex="1" parent="SbpHxmQpAISH4jzBrHbH-41">
          <mxGeometry x="390" y="65" width="80" height="80" as="geometry" />
        </mxCell>
        <mxCell id="SbpHxmQpAISH4jzBrHbH-53" value="" style="edgeStyle=orthogonalEdgeStyle;rounded=0;orthogonalLoop=1;jettySize=auto;html=1;" edge="1" parent="SbpHxmQpAISH4jzBrHbH-41" source="SbpHxmQpAISH4jzBrHbH-50" target="SbpHxmQpAISH4jzBrHbH-52">
          <mxGeometry relative="1" as="geometry" />
        </mxCell>
        <mxCell id="SbpHxmQpAISH4jzBrHbH-64" style="edgeStyle=orthogonalEdgeStyle;rounded=0;orthogonalLoop=1;jettySize=auto;html=1;entryX=1;entryY=0.5;entryDx=0;entryDy=0;" edge="1" parent="SbpHxmQpAISH4jzBrHbH-41" source="SbpHxmQpAISH4jzBrHbH-50" target="SbpHxmQpAISH4jzBrHbH-63">
          <mxGeometry relative="1" as="geometry" />
        </mxCell>
        <mxCell id="SbpHxmQpAISH4jzBrHbH-50" value="&lt;b&gt;&lt;u&gt;Controller&lt;/u&gt;&lt;/b&gt;" style="whiteSpace=wrap;html=1;aspect=fixed;" vertex="1" parent="SbpHxmQpAISH4jzBrHbH-41">
          <mxGeometry x="545" y="410" width="80" height="80" as="geometry" />
        </mxCell>
        <mxCell id="SbpHxmQpAISH4jzBrHbH-65" style="edgeStyle=orthogonalEdgeStyle;rounded=0;orthogonalLoop=1;jettySize=auto;html=1;entryX=1;entryY=0.5;entryDx=0;entryDy=0;" edge="1" parent="SbpHxmQpAISH4jzBrHbH-41" source="SbpHxmQpAISH4jzBrHbH-52" target="SbpHxmQpAISH4jzBrHbH-63">
          <mxGeometry relative="1" as="geometry" />
        </mxCell>
        <mxCell id="SbpHxmQpAISH4jzBrHbH-52" value="&lt;b&gt;&lt;u&gt;Thermostat&lt;/u&gt;&lt;/b&gt;" style="whiteSpace=wrap;html=1;aspect=fixed;" vertex="1" parent="SbpHxmQpAISH4jzBrHbH-41">
          <mxGeometry x="545" y="570" width="80" height="80" as="geometry" />
        </mxCell>
        <mxCell id="SbpHxmQpAISH4jzBrHbH-56" value="Protocol" style="whiteSpace=wrap;html=1;aspect=fixed;" vertex="1" parent="SbpHxmQpAISH4jzBrHbH-41">
          <mxGeometry x="390" y="170" width="80" height="80" as="geometry" />
        </mxCell>
        <mxCell id="SbpHxmQpAISH4jzBrHbH-57" value="Command" style="whiteSpace=wrap;html=1;aspect=fixed;" vertex="1" parent="SbpHxmQpAISH4jzBrHbH-41">
          <mxGeometry x="390" y="280" width="80" height="80" as="geometry" />
        </mxCell>
        <mxCell id="SbpHxmQpAISH4jzBrHbH-67" style="edgeStyle=orthogonalEdgeStyle;rounded=0;orthogonalLoop=1;jettySize=auto;html=1;entryX=0.5;entryY=1;entryDx=0;entryDy=0;" edge="1" parent="SbpHxmQpAISH4jzBrHbH-41" source="SbpHxmQpAISH4jzBrHbH-63" target="SbpHxmQpAISH4jzBrHbH-66">
          <mxGeometry relative="1" as="geometry" />
        </mxCell>
        <mxCell id="SbpHxmQpAISH4jzBrHbH-77" value="" style="edgeStyle=orthogonalEdgeStyle;rounded=0;orthogonalLoop=1;jettySize=auto;html=1;" edge="1" parent="SbpHxmQpAISH4jzBrHbH-41" source="SbpHxmQpAISH4jzBrHbH-63" target="SbpHxmQpAISH4jzBrHbH-76">
          <mxGeometry relative="1" as="geometry" />
        </mxCell>
        <mxCell id="SbpHxmQpAISH4jzBrHbH-63" value="Heater&lt;div&gt;(state)&lt;/div&gt;" style="whiteSpace=wrap;html=1;aspect=fixed;" vertex="1" parent="SbpHxmQpAISH4jzBrHbH-41">
          <mxGeometry x="360" y="490" width="80" height="80" as="geometry" />
        </mxCell>
        <mxCell id="SbpHxmQpAISH4jzBrHbH-68" style="edgeStyle=orthogonalEdgeStyle;rounded=0;orthogonalLoop=1;jettySize=auto;html=1;entryX=0;entryY=0.5;entryDx=0;entryDy=0;" edge="1" parent="SbpHxmQpAISH4jzBrHbH-41" source="SbpHxmQpAISH4jzBrHbH-66" target="SbpHxmQpAISH4jzBrHbH-48">
          <mxGeometry relative="1" as="geometry" />
        </mxCell>
        <mxCell id="SbpHxmQpAISH4jzBrHbH-66" value="&lt;b&gt;&lt;u&gt;Aggregator&lt;/u&gt;&lt;/b&gt;" style="whiteSpace=wrap;html=1;aspect=fixed;" vertex="1" parent="SbpHxmQpAISH4jzBrHbH-41">
          <mxGeometry x="190" y="350" width="80" height="80" as="geometry" />
        </mxCell>
        <mxCell id="SbpHxmQpAISH4jzBrHbH-76" value="&lt;b&gt;&lt;u&gt;Simulator&lt;/u&gt;&lt;/b&gt;" style="whiteSpace=wrap;html=1;aspect=fixed;" vertex="1" parent="SbpHxmQpAISH4jzBrHbH-41">
          <mxGeometry x="310" y="650" width="80" height="80" as="geometry" />
        </mxCell>
        <mxCell id="SbpHxmQpAISH4jzBrHbH-78" value="Wifi" style="whiteSpace=wrap;html=1;aspect=fixed;" vertex="1" parent="SbpHxmQpAISH4jzBrHbH-41">
          <mxGeometry x="40" y="65" width="80" height="80" as="geometry" />
        </mxCell>
        <mxCell id="SbpHxmQpAISH4jzBrHbH-79" value="SystemTime" style="whiteSpace=wrap;html=1;aspect=fixed;" vertex="1" parent="SbpHxmQpAISH4jzBrHbH-41">
          <mxGeometry x="40" y="170" width="80" height="80" as="geometry" />
        </mxCell>
        <mxCell id="SbpHxmQpAISH4jzBrHbH-81" value="&lt;u style=&quot;font-weight: bold;&quot;&gt;Tasks&lt;/u&gt;&lt;br&gt;Libraries" style="text;html=1;align=center;verticalAlign=middle;whiteSpace=wrap;rounded=0;" vertex="1" parent="SbpHxmQpAISH4jzBrHbH-41">
          <mxGeometry x="180" y="90" width="60" height="30" as="geometry" />
        </mxCell>
        <mxCell id="SbpHxmQpAISH4jzBrHbH-84" style="edgeStyle=orthogonalEdgeStyle;rounded=0;orthogonalLoop=1;jettySize=auto;html=1;entryX=1;entryY=0.5;entryDx=0;entryDy=0;strokeColor=#FF0000;" edge="1" parent="SbpHxmQpAISH4jzBrHbH-41" source="SbpHxmQpAISH4jzBrHbH-82" target="SbpHxmQpAISH4jzBrHbH-52">
          <mxGeometry relative="1" as="geometry">
            <Array as="points">
              <mxPoint x="760" y="610" />
            </Array>
          </mxGeometry>
        </mxCell>
        <mxCell id="SbpHxmQpAISH4jzBrHbH-85" style="edgeStyle=orthogonalEdgeStyle;rounded=0;orthogonalLoop=1;jettySize=auto;html=1;entryX=1;entryY=1;entryDx=0;entryDy=0;strokeColor=#FF0000;" edge="1" parent="SbpHxmQpAISH4jzBrHbH-41" source="SbpHxmQpAISH4jzBrHbH-82" target="SbpHxmQpAISH4jzBrHbH-63">
          <mxGeometry relative="1" as="geometry">
            <Array as="points">
              <mxPoint x="760" y="680" />
              <mxPoint x="440" y="680" />
            </Array>
          </mxGeometry>
        </mxCell>
        <mxCell id="SbpHxmQpAISH4jzBrHbH-86" style="edgeStyle=orthogonalEdgeStyle;rounded=0;orthogonalLoop=1;jettySize=auto;html=1;entryX=1;entryY=0.5;entryDx=0;entryDy=0;strokeColor=#FF0000;" edge="1" parent="SbpHxmQpAISH4jzBrHbH-41" source="SbpHxmQpAISH4jzBrHbH-82" target="SbpHxmQpAISH4jzBrHbH-50">
          <mxGeometry relative="1" as="geometry">
            <Array as="points">
              <mxPoint x="760" y="450" />
            </Array>
          </mxGeometry>
        </mxCell>
        <mxCell id="SbpHxmQpAISH4jzBrHbH-82" value="&lt;b&gt;&lt;u&gt;Main&lt;/u&gt;&lt;/b&gt;" style="whiteSpace=wrap;html=1;aspect=fixed;" vertex="1" parent="SbpHxmQpAISH4jzBrHbH-41">
          <mxGeometry x="720" y="700" width="80" height="80" as="geometry" />
        </mxCell>
        <mxCell id="SbpHxmQpAISH4jzBrHbH-87" value="Killswitch" style="text;html=1;align=center;verticalAlign=middle;whiteSpace=wrap;rounded=0;" vertex="1" parent="SbpHxmQpAISH4jzBrHbH-41">
          <mxGeometry x="760" y="640" width="60" height="30" as="geometry" />
        </mxCell>
        <mxCell id="SbpHxmQpAISH4jzBrHbH-42" value="Ubuntu" style="rounded=0;whiteSpace=wrap;html=1;" vertex="1" parent="1">
          <mxGeometry x="-50" y="640" width="330" height="60" as="geometry" />
        </mxCell>
        <mxCell id="SbpHxmQpAISH4jzBrHbH-43" value="Windows" style="rounded=0;whiteSpace=wrap;html=1;" vertex="1" parent="1">
          <mxGeometry x="655" y="1290" width="330" height="60" as="geometry" />
        </mxCell>
        <mxCell id="SbpHxmQpAISH4jzBrHbH-44" value="Python" style="rounded=0;whiteSpace=wrap;html=1;" vertex="1" parent="1">
          <mxGeometry x="655" y="1230" width="330" height="60" as="geometry" />
        </mxCell>
        <mxCell id="SbpHxmQpAISH4jzBrHbH-47" value="" style="edgeStyle=orthogonalEdgeStyle;rounded=0;orthogonalLoop=1;jettySize=auto;html=1;" edge="1" parent="1" source="SbpHxmQpAISH4jzBrHbH-33" target="SbpHxmQpAISH4jzBrHbH-46">
          <mxGeometry relative="1" as="geometry" />
        </mxCell>
        <mxCell id="SbpHxmQpAISH4jzBrHbH-70" value="ESP-IDF" style="rounded=0;whiteSpace=wrap;html=1;" vertex="1" parent="1">
          <mxGeometry x="-230" y="1820" width="330" height="60" as="geometry" />
        </mxCell>
        <mxCell id="SbpHxmQpAISH4jzBrHbH-71" value="FreeRTOS" style="rounded=0;whiteSpace=wrap;html=1;" vertex="1" parent="1">
          <mxGeometry x="-230" y="1880" width="330" height="60" as="geometry" />
        </mxCell>
        <mxCell id="SbpHxmQpAISH4jzBrHbH-72" value="ESP32" style="rounded=0;whiteSpace=wrap;html=1;" vertex="1" parent="1">
          <mxGeometry x="-230" y="1940" width="330" height="60" as="geometry" />
        </mxCell>
        <mxCell id="SbpHxmQpAISH4jzBrHbH-73" value="Lenovo Laptop" style="rounded=0;whiteSpace=wrap;html=1;" vertex="1" parent="1">
          <mxGeometry x="655" y="1350" width="330" height="60" as="geometry" />
        </mxCell>
        <mxCell id="SbpHxmQpAISH4jzBrHbH-74" value="AWS virtualisation &amp;amp; networking" style="rounded=0;whiteSpace=wrap;html=1;" vertex="1" parent="1">
          <mxGeometry x="-50" y="700" width="330" height="60" as="geometry" />
        </mxCell>
        <mxCell id="SbpHxmQpAISH4jzBrHbH-75" value="Server in data centre (Dublin afaik)" style="rounded=0;whiteSpace=wrap;html=1;" vertex="1" parent="1">
          <mxGeometry x="-50" y="760" width="330" height="60" as="geometry" />
        </mxCell>
        <mxCell id="SbpHxmQpAISH4jzBrHbH-88" value="CI/CD:&lt;div&gt;Github action - Tag -&amp;gt; release, usable generated code&lt;/div&gt;" style="rounded=0;whiteSpace=wrap;html=1;" vertex="1" parent="1">
          <mxGeometry x="1460" y="480" width="190" height="120" as="geometry" />
        </mxCell>
      </root>
    </mxGraphModel>
  </diagram>
</mxfile>
